<svg width="512" height="512" viewBox="0 0 512 512" fill="none" xmlns="http://www.w3.org/2000/svg">
  <defs>
    <linearGradient id="faviconGradient" x1="0%" y1="0%" x2="100%" y2="100%">
      <stop offset="0%" style="stop-color:#3B82F6;stop-opacity:1" />
      <stop offset="50%" style="stop-color:#8B5CF6;stop-opacity:1" />
      <stop offset="100%" style="stop-color:#EC4899;stop-opacity:1" />
    </linearGradient>
    <linearGradient id="sparkleGlow" x1="0%" y1="0%" x2="100%" y2="100%">
      <stop offset="0%" style="stop-color:#FBBF24;stop-opacity:1" />
      <stop offset="100%" style="stop-color:#F59E0B;stop-opacity:1" />
    </linearGradient>
  </defs>
  
  <!-- Rounded Square Background -->
  <rect width="512" height="512" rx="115" fill="url(#faviconGradient)"/>
  
  <!-- Inner Glow Circle -->
  <circle cx="256" cy="256" r="200" fill="white" opacity="0.1"/>
  <circle cx="256" cy="256" r="150" fill="white" opacity="0.05"/>
  
  <!-- Main Sparkle Icon -->
  <path d="M256 120 L268 160 L308 160 L276 188 L292 228 L256 200 L220 228 L236 188 L204 160 L244 160 Z" 
        fill="white" 
        filter="drop-shadow(0 10px 20px rgba(0,0,0,0.3))"/>
  
  <!-- Chart Bars -->
  <g opacity="0.4">
    <rect x="160" y="300" width="40" height="100" rx="8" fill="white"/>
    <rect x="215" y="260" width="40" height="140" rx="8" fill="white"/>
    <rect x="270" y="280" width="40" height="120" rx="8" fill="white"/>
    <rect x="325" y="240" width="40" height="160" rx="8" fill="white"/>
  </g>
  
  <!-- Trend Line -->
  <path d="M 180 320 L 235 280 L 290 300 L 345 260" 
        stroke="white" 
        stroke-width="8" 
        stroke-linecap="round" 
        stroke-linejoin="round" 
        fill="none"
        opacity="0.6"/>
  
  <!-- Accent Sparkles -->
  <circle cx="180" cy="180" r="8" fill="white" opacity="0.8"/>
  <circle cx="332" cy="160" r="6" fill="white" opacity="0.7"/>
  <circle cx="350" cy="300" r="7" fill="white" opacity="0.6"/>
  <circle cx="150" cy="250" r="5" fill="white" opacity="0.5"/>
  
  <!-- Dollar Sign (subtle) -->
  <text x="256" y="370" 
        font-family="Arial, sans-serif" 
        font-size="80" 
        font-weight="bold" 
        fill="white" 
        opacity="0.3" 
        text-anchor="middle">
    ₹
  </text>
</svg>
